<?xml version="1.0" encoding="UTF-8"?><svg id="Layer_2" xmlns="http://www.w3.org/2000/svg" viewBox="0 0 396.8 101.67"><defs><style>.cls-1{fill:#6fbf50;}.cls-1,.cls-2{stroke-width:0px;}.cls-2{fill:#1d3756;}</style></defs><g id="Layer_1-2"><path class="cls-2" d="m45.57,39.4c-8.03,0-14.57,6.53-14.57,14.57s6.54,14.57,14.57,14.57,14.57-6.54,14.57-14.57-6.53-14.57-14.57-14.57Z"/><path class="cls-2" d="m189.26,30.98c17.26,0,30.53,12.94,30.53,30.7,0,1.16-.17,3.32-.33,4.48-.17,1.66-1.49,2.82-2.99,2.82h-45.14c.5,8.96,8.3,17.76,19.08,17.76,5.97,0,11.45-2.66,14.77-4.81,1.99-1.16,3.15-1.83,4.48-.17l4.65,6.31c1.16,1.33,1.66,2.66-.33,4.31-4.81,4.15-13.44,8.3-24.56,8.3-20.08,0-33.35-15.76-33.35-34.85s13.28-34.85,33.19-34.85Zm15.1,27.55c-.5-7.97-7.14-14.77-15.27-14.77-8.96,0-15.93,6.47-16.93,14.77h32.19Z"/><path class="cls-2" d="m221.61,36.45c-1-2.16,0-3.82,2.49-3.82h9.79c1.66,0,2.49.83,2.99,1.83l17.26,39.16h.17l17.92-39.16c.83-1.83,2.66-1.83,4.48-1.83h7.63c2.49,0,3.48,1.66,2.49,3.82l-29.37,62.56c-.33.83-1.33,1.66-2.82,1.66h-.83c-1.49,0-2.49-.83-2.82-1.66l-29.37-62.56Z"/><path class="cls-2" d="m302.64,13.62c0-3.22,2.54-5.93,5.76-5.93s5.76,2.71,5.76,5.93c0,3.05-2.54,5.59-5.76,5.59s-5.76-2.54-5.76-5.59Zm2.03,20.79c0-1.19,1.02-2.2,2.2-2.2h3.05c1.19,0,2.2,1.02,2.2,2.2v63.37c0,1.36-.68,2.2-2.2,2.2h-3.39c-1.19,0-1.86-1.02-1.86-2.2v-63.37Z"/><path class="cls-2" d="m362.74,30.51c18.98,0,34.05,16.1,34.05,35.41s-15.08,35.75-34.05,35.75-34.05-15.93-34.05-35.75,14.91-35.41,34.05-35.41Zm0,64.21c14.91,0,26.6-12.71,26.6-28.8s-11.69-28.29-26.6-28.29-26.77,12.71-26.77,28.29,11.69,28.8,26.77,28.8Z"/><path class="cls-2" d="m281.14,94.9c0-3.22,2.54-5.93,5.76-5.93s5.76,2.71,5.76,5.93c0,3.05-2.54,5.59-5.76,5.59s-5.76-2.54-5.76-5.59Z"/><path class="cls-2" d="m155.56,32.82c-2.43-.96-3.3-.89-5.7-1.32-.12-.02-.24-.04-.36-.06-.2-.03-.41-.07-.61-.1h0c-1.64-.25-3.38-.36-5.04-.36-12.11,0-18.25,7.97-19.42,9.62l.07-5.68c-.33-1.33-1.66-2.32-2.82-2.32l-6.71.04c-1.66,0-3.15,1.49-3.15,3.15v60.07c0,1.66,1.49,3.15,3.15,3.15h7.97c2.66,0,4.48-.33,4.48-3.15v-42.15c.66-1.16,5.31-8.24,14.93-8.13,2.28.03,4.46.25,6.55.62.69.13,1.29.14,1.79.02s.98-1.23,1.21-1.71c1.66-3.59,2.76-5.27,5.02-8.17.62-.79.64-2.72-1.37-3.51Z"/><path class="cls-1" d="m91.14,53.96v-1.12h-.03c-.33-13.68-6.69-25.85-16.51-33.99l-10.08,5.82c9.59,6.23,15.96,17.03,15.96,29.29,0,19.25-15.66,34.9-34.9,34.9S10.67,73.21,10.67,53.97c0-18.19,13.99-33.17,31.77-34.76v8.69l24.16-13.95L42.44,0v8.51C18.73,10.13,0,29.85,0,53.97s19.8,44.95,44.45,45.54v.03h46.69v-45.57s0,0,0,0,0,0,0Z"/></g></svg>
